<svg xmlns="http://www.w3.org/2000/svg" data-name="Layer 1" viewBox="0 0 100 125" x="0px" y="0px"><title>Artboard 20</title><circle cx="50" cy="56" r="6"/><path d="M80,56a9.35,9.35,0,0,0-1.1-4.42A40.22,40.22,0,0,0,70.74,41L70,40.28l6.16-6.16a3,3,0,0,0,0-4.24,3.07,3.07,0,0,0-4.24,0L65,36.79l-.65-.34a29.62,29.62,0,0,0-10.43-3.22l-.88-.1V24a3,3,0,0,0-6,0v9.13l-.88.1a29.61,29.61,0,0,0-10.43,3.22l-.65.34-6.91-6.91a3,3,0,1,0-4.24,4.24L30,40.28l-.78.71A40.22,40.22,0,0,0,21.1,51.58a9.43,9.43,0,0,0,0,8.84C24.83,67.36,33.55,79,50,79S75.17,67.36,78.9,60.42A9.35,9.35,0,0,0,80,56Zm-5.78.43C71.8,61.42,64.59,73,50,73S28.2,61.42,25.78,56.44L25.56,56l.21-.44C28.2,50.58,35.41,39,50,39S71.8,50.58,74.22,55.56l.21.44Z"/><text x="0" y="115" fill="#000000" font-size="5px" font-weight="bold" font-family="'Helvetica Neue', Helvetica, Arial-Unicode, Arial, Sans-serif">Created by Gregor Cresnar</text><text x="0" y="120" fill="#000000" font-size="5px" font-weight="bold" font-family="'Helvetica Neue', Helvetica, Arial-Unicode, Arial, Sans-serif">from the Noun Project</text></svg>