<svg xmlns="http://www.w3.org/2000/svg" xmlns:xlink="http://www.w3.org/1999/xlink" version="1.1" x="0px" y="0px" viewBox="0 0 64 80" style="enable-background:new 0 0 64 64;" xml:space="preserve"><g><g><g><path d="M42.5,38.0524521h-4c-0.5527344,0-1-0.4472656-1-1s0.4472656-1,1-1h4c3.859375,0,7-3.140625,7-7.0000019v-2h-28v2     c0,3.8593769,3.140625,7.0000019,7,7.0000019h4c0.5527344,0,1,0.4472656,1,1s-0.4472656,1-1,1h-4     c-4.9628906,0-9-4.0371094-9-9.0000019v-3c0-0.5527344,0.4472656-1,1-1h30c0.5527344,0,1,0.4472656,1,1v3     C51.5,34.0153427,47.4628906,38.0524521,42.5,38.0524521z"/></g></g><g><g><path d="M50.2197266,27.0739346c-0.5175781,0-0.9560547-0.3984375-0.9960938-0.9228516     c-0.0566406-0.7285156,0.0556641-1.1494141,0.1367188-1.4560547c0.0722656-0.2724609,0.1113281-0.421875-0.0585938-1.0351563     c-0.0585938-0.2128906-0.2958984-0.5263672-0.5244141-0.8291016c-0.2851563-0.3769531-0.6074219-0.8037109-0.8398552-1.3222656     c-0.1904182-0.4248047-0.2744026-0.8642578-0.3554573-1.2880859c-0.0839844-0.4443359-0.1640625-0.8642578-0.3505859-1.1396484     c-0.1542969-0.2294922-0.5-0.4492188-0.8652344-0.6835938c-0.3574219-0.2275391-0.7626953-0.4863281-1.1171875-0.8339844     c-0.3193359-0.3125-0.5556641-0.6699219-0.7851563-1.0146484c-0.2519531-0.3818359-0.4912109-0.74121-0.7705078-0.9150381     c-0.2275391-0.1416016-0.630867-0.1962891-1.0585938-0.2548828c-0.4199219-0.0566406-0.8974609-0.1220703-1.3681641-0.2890625     c-0.4267578-0.1513672-0.7939453-0.3828125-1.1494141-0.6064453c-0.3867188-0.2431641-0.7519531-0.4726563-1.0917969-0.5253906     c-0.2128983-0.0322266-0.5478516,0.0283203-0.9716797,0.1083984C37.6455078,14.1422949,37.1357422,14.2370214,36.5,14.2907324     v11.7617178c0,0.5527344-0.4472656,1-1,1s-1-0.4472656-1-1V13.3327246c0-0.5527344,0.4472656-1,1-1     c0.9404297,0,1.6025391-0.1230469,2.1865234-0.2324219c0.5859375-0.109375,1.09375-0.2060547,1.6435547-0.1191406     c0.75,0.1152344,1.3359375,0.484375,1.8525391,0.8095703c0.2753906,0.1738281,0.5351563,0.3369141,0.7519531,0.4140625     c0.2773438,0.0976563,0.6142578,0.1435547,0.9707031,0.1923828c0.5878906,0.0800781,1.2539063,0.1708984,1.8427734,0.5371094     c0.6503906,0.4033203,1.0400391,0.9912109,1.3837891,1.5087891c0.1787109,0.2705078,0.3476563,0.5263672,0.5166016,0.6914053     c0.2060547,0.2021484,0.4921875,0.3847656,0.7939453,0.5771484c0.4970703,0.3173828,1.0595703,0.6767578,1.4472656,1.25     c0.4160156,0.6162109,0.5439453,1.2890625,0.6572266,1.8837891c0.0625,0.3261719,0.1210938,0.6347656,0.2158203,0.8457031     c0.1386719,0.3105469,0.3681641,0.6132813,0.609375,0.9335938c0.3427734,0.453125,0.6972656,0.921875,0.8574219,1.5009766     c0.2919922,1.0517578,0.2060547,1.5449219,0.0634766,2.0820313c-0.0605469,0.2314453-0.1054802,0.3994141-0.0751953,0.7890625     c0.0419922,0.5507813-0.3691406,1.03125-0.9199219,1.0742188C50.2714844,27.072958,50.2451172,27.0739346,50.2197266,27.0739346z     "/></g></g><g><g><path d="M35.5,41.0524521c-2.2060547,0-4-1.7939453-4-4s1.7939453-4,4-4s4,1.7939453,4,4S37.7060547,41.0524521,35.5,41.0524521z      M35.5,35.0524521c-1.1025391,0-2,0.8974609-2,2s0.8974609,2,2,2s2-0.8974609,2-2S36.6025391,35.0524521,35.5,35.0524521z"/></g></g><g><g><path d="M33.2607422,34.7428818c-0.3203125,0-0.6357422-0.1533203-0.8291016-0.4394531l-10.0722656-14.86133H13.5     c-0.5527344,0-1-0.4472656-1-1s0.4472656-1,1-1h9.3896484c0.3320313,0,0.6416016,0.1640625,0.828125,0.4384766     l10.3701172,15.3017597c0.3095703,0.4570313,0.1904297,1.0791016-0.2675781,1.3886719     C33.6484375,34.6872177,33.4541016,34.7428818,33.2607422,34.7428818z"/></g></g><g><g><path d="M28.4990234,44.0524521c-0.2041016,0-0.4091797-0.0625-0.5869141-0.1914063     c-0.4472656-0.3242188-0.5458984-0.9501953-0.2207031-1.3964844l4.0371094-5.5537109     c0.3232422-0.4472656,0.9482422-0.5458984,1.3964844-0.2207031c0.4472656,0.3242188,0.5458984,0.9501953,0.2207031,1.3964844     l-4.0371094,5.5537109C29.1132813,43.909874,28.8085938,44.0524521,28.4990234,44.0524521z"/></g></g><g><g><path d="M42.5009766,44.0524521c-0.3095703,0-0.6142578-0.1425781-0.8095703-0.4121094l-4.0371094-5.5537109     c-0.3251953-0.4462891-0.2265625-1.0722656,0.2207031-1.3964844s1.0722656-0.2265625,1.3964844,0.2207031l4.0371094,5.5537109     c0.3251953,0.4462891,0.2265625,1.0722656-0.2207031,1.3964844     C42.9101563,43.9899521,42.7050781,44.0524521,42.5009766,44.0524521z"/></g></g><g><g><path d="M26.5,52.0524521c-2.7568359,0-5-2.2431641-5-5s2.2431641-5,5-5s5,2.2431641,5,5S29.2568359,52.0524521,26.5,52.0524521z      M26.5,44.0524521c-1.6542969,0-3,1.3457031-3,3s1.3457031,3,3,3s3-1.3457031,3-3S28.1542969,44.0524521,26.5,44.0524521z"/></g></g><g><g><path d="M44.5,52.0524521c-2.7568359,0-5-2.2431641-5-5s2.2431641-5,5-5s5,2.2431641,5,5S47.2568359,52.0524521,44.5,52.0524521z      M44.5,44.0524521c-1.6542969,0-3,1.3457031-3,3s1.3457031,3,3,3s3-1.3457031,3-3S46.1542969,44.0524521,44.5,44.0524521z"/></g></g><g><g><path d="M35.5,44.7653427c-2.1035156,0-4.0927734-1.0126953-5.3212891-2.7089844     c-0.3242188-0.4472656-0.2246094-1.0732422,0.2226563-1.3964844c0.4482422-0.3261719,1.0732422-0.2236328,1.3964844,0.2226563     c0.8535156,1.1787109,2.2382813,1.8828125,3.7021484,1.8828125s2.8486328-0.7041016,3.7021484-1.8828125     c0.3232422-0.4472656,0.9462891-0.5488281,1.3964844-0.2226563c0.4472656,0.3232422,0.546875,0.9492188,0.2226563,1.3964844     C39.5927734,43.7526474,37.6035156,44.7653427,35.5,44.7653427z"/></g></g></g><text x="0" y="79" fill="#000000" font-size="5px" font-weight="bold" font-family="'Helvetica Neue', Helvetica, Arial-Unicode, Arial, Sans-serif">Created by Ian Rahmadi Kurniawan</text><text x="0" y="84" fill="#000000" font-size="5px" font-weight="bold" font-family="'Helvetica Neue', Helvetica, Arial-Unicode, Arial, Sans-serif">from the Noun Project</text></svg>