<svg xmlns="http://www.w3.org/2000/svg" xmlns:xlink="http://www.w3.org/1999/xlink" xml:space="preserve" version="1.1" style="shape-rendering:geometricPrecision;text-rendering:geometricPrecision;image-rendering:optimizeQuality;" viewBox="0 0 846.66 1058.325" x="0px" y="0px" fill-rule="evenodd" clip-rule="evenodd"><defs><style type="text/css">
   
    .fil0 {fill:black;fill-rule:nonzero}
   
  </style></defs><g><path class="fil0" d="M605.41 735.44c28.58,23.34 -6.94,66.83 -35.44,43.56 -57.89,-47.17 -61.13,-49.39 -115.77,-5.97 -62.32,35.67 -84.41,15.51 -110.54,-20.61 -25.18,-34.85 -37.96,-32.26 -66.98,-0.74 -83.29,90.76 -176.62,-14.84 -176.62,-108.02l0 -267.96c0,-427.69 646.54,-427.69 646.54,0l0 269.44c0,36.99 -56.27,36.99 -56.27,0l0 -269.44c0,-353.11 -534,-353.11 -534,0l0 267.96c0,35.07 33.44,119.85 79,70.08 51.55,-56.2 103.96,-58.93 149.91,0.58 14.25,18.46 17.12,27.99 39.43,10.56 77.45,-61.21 85.12,-67.34 180.74,10.56zm-79.82 -429.85c40.14,0 72.74,40.42 72.74,90.33 0,49.92 -32.6,90.34 -72.74,90.34 -40.14,0 -72.75,-40.42 -72.75,-90.34 0,-49.91 32.61,-90.33 72.75,-90.33zm-204.57 0c40.13,0 72.73,40.42 72.73,90.33 0,49.92 -32.6,90.34 -72.73,90.34 -40.16,0 -72.75,-40.42 -72.75,-90.34 0,-49.91 32.59,-90.33 72.75,-90.33z"/></g><text x="0" y="861.66" fill="#000000" font-size="5px" font-weight="bold" font-family="'Helvetica Neue', Helvetica, Arial-Unicode, Arial, Sans-serif">Created by Tere Il</text><text x="0" y="866.66" fill="#000000" font-size="5px" font-weight="bold" font-family="'Helvetica Neue', Helvetica, Arial-Unicode, Arial, Sans-serif">from the Noun Project</text></svg>