<svg xmlns="http://www.w3.org/2000/svg" data-name="Layer 1" viewBox="0 0 48 60" x="0px" y="0px"><title>Artboard 11</title><path d="M20,8h8a1,1,0,0,0,0-2H20a1,1,0,0,0,0,2Z"/><circle cx="31" cy="7" r="1"/><circle cx="16" cy="7" r="1"/><path d="M4,22a1,1,0,0,0,1-1V15a1.0013,1.0013,0,0,1,1-1h.5V34a2.96517,2.96517,0,0,0,.18433,1H6.41406A1.99994,1.99994,0,0,0,5,38.41406l2,2A1.98633,1.98633,0,0,0,8.41406,41H9v1a3.00328,3.00328,0,0,0,3,3h4a3.00328,3.00328,0,0,0,3-3V41H29v1a3.00328,3.00328,0,0,0,3,3h4a3.00328,3.00328,0,0,0,3-3V41h.58594A1.98633,1.98633,0,0,0,41,40.41406l2-2A1.99994,1.99994,0,0,0,41.58594,35h-.27027A2.96517,2.96517,0,0,0,41.5,34V14H42a1.0013,1.0013,0,0,1,1,1v6a1,1,0,0,0,2,0V15a3.00328,3.00328,0,0,0-3-3h-.5V6a3.00328,3.00328,0,0,0-3-3H9.5a3.00328,3.00328,0,0,0-3,3v6H6a3.00328,3.00328,0,0,0-3,3v6A1,1,0,0,0,4,22ZM39.5,11V26H33.58008l-3.71192-6.49609a.9999.9999,0,0,0-1.73632.99218L31.27686,26H25V11ZM23,26H17.58008l-3.71192-6.49609a.9999.9999,0,0,0-1.73632.99218L15.27686,26H8.5V11H23ZM17,42a1.0013,1.0013,0,0,1-1,1H12a1.0013,1.0013,0,0,1-1-1V41h6Zm20,0a1.0013,1.0013,0,0,1-1,1H32a1.0013,1.0013,0,0,1-1-1V41h6Zm2.58594-3H8.41406l-2-2H41.58594ZM9.5,35a1.0013,1.0013,0,0,1-1-1V28h31v6a1.0013,1.0013,0,0,1-1,1Zm0-30h29a1.0013,1.0013,0,0,1,1,1V9H8.5V6A1.0013,1.0013,0,0,1,9.5,5Z"/><path d="M27,31H21a1,1,0,0,0,0,2h6a1,1,0,0,0,0-2Z"/><path d="M16,29H12a1,1,0,0,0-1,1v3a1,1,0,0,0,1,1h4a1,1,0,0,0,1-1V30A1,1,0,0,0,16,29Zm-1,3H13V31h2Z"/><path d="M36,29H32a1,1,0,0,0-1,1v3a1,1,0,0,0,1,1h4a1,1,0,0,0,1-1V30A1,1,0,0,0,36,29Zm-1,3H33V31h2Z"/><text x="0" y="63" fill="#000000" font-size="5px" font-weight="bold" font-family="'Helvetica Neue', Helvetica, Arial-Unicode, Arial, Sans-serif">Created by Anggara Putra</text><text x="0" y="68" fill="#000000" font-size="5px" font-weight="bold" font-family="'Helvetica Neue', Helvetica, Arial-Unicode, Arial, Sans-serif">from the Noun Project</text></svg>